<svg id="lenovo-legion-logo-negative-white" xmlns="http://www.w3.org/2000/svg" width="213.761" height="80" viewBox="0 0 213.761 80">
  <g id="Group_11" data-name="Group 11">
    <path id="Path_75" data-name="Path 75" d="M0,0H3.249V25.793H19.457v3H0Z" fill="#fff"/>
    <path id="Path_76" data-name="Path 76" d="M92.628,42.989v-.082c0-6.129,4.319-11.065,10.2-11.065,6.294,0,9.914,5.018,9.914,11.23A8.345,8.345,0,0,1,112.7,44.1H95.836c.453,4.608,3.7,7.2,7.487,7.2a8.8,8.8,0,0,0,6.705-3L112,50.065a10.977,10.977,0,0,1-8.762,3.99c-5.841,0-10.613-4.484-10.613-11.066Zm16.907-1.233c-.329-3.867-2.551-7.24-6.788-7.24-3.7,0-6.5,3.086-6.911,7.24h13.7Z" transform="translate(-72.044 -24.766)" fill="#fff"/>
    <path id="Path_77" data-name="Path 77" d="M198.733,32.3H201.9V36a8.053,8.053,0,0,1,7.281-4.154c5.142,0,8.145,3.455,8.145,8.514v13.2H214.16V41.139c0-3.949-2.139-6.418-5.882-6.418-3.661,0-6.376,2.674-6.376,6.664V53.562h-3.168V32.3Z" transform="translate(-154.57 -24.767)" fill="#fff"/>
    <path id="Path_78" data-name="Path 78" d="M297.008,43.031v-.082a11.086,11.086,0,0,1,22.173-.082v.082a11.043,11.043,0,0,1-11.148,11.106A10.9,10.9,0,0,1,297.008,43.031Zm18.923,0v-.082a8.048,8.048,0,0,0-7.9-8.31c-4.607,0-7.774,3.743-7.774,8.227v.082a7.979,7.979,0,0,0,7.858,8.268c4.607,0,7.815-3.7,7.815-8.186Z" transform="translate(-231.006 -24.766)" fill="#fff"/>
    <path id="Path_79" data-name="Path 79" d="M397.4,33.877h3.5l7.157,17.648,7.2-17.648h3.414l-9.255,21.432h-2.8Z" transform="translate(-309.086 -26.349)" fill="#fff"/>
    <path id="Path_80" data-name="Path 80" d="M493.616,43.031v-.082a11.086,11.086,0,0,1,22.172-.082v.082a11.043,11.043,0,0,1-11.148,11.106,10.9,10.9,0,0,1-11.025-11.024Zm18.923,0v-.082a8.048,8.048,0,0,0-7.9-8.31c-4.608,0-7.774,3.743-7.774,8.227v.082a7.978,7.978,0,0,0,7.857,8.268c4.608,0,7.816-3.7,7.816-8.186Z" transform="translate(-383.923 -24.766)" fill="#fff"/>
  </g>
  <g id="Group_12" data-name="Group 12" transform="translate(0.049 39.635)">
    <path id="Path_81" data-name="Path 81" d="M831.851,179.656V203.52l-20.093-22.943a3.5,3.5,0,0,0-2.657-1.18,3.608,3.608,0,0,0-3.6,3.6v35.751H813.9V195.037l20.1,22.974a3.464,3.464,0,0,0,2.646,1.167,3.609,3.609,0,0,0,3.6-3.6V179.656Z" transform="translate(-626.545 -179.166)" fill="#fff"/>
    <path id="Path_82" data-name="Path 82" d="M8.716,180.535H.22V216.95a2.377,2.377,0,0,0,2.591,2.583h25.7v-7.786H8.716V180.535h0Z" transform="translate(-0.22 -180.051)" fill="#fff"/>
    <path id="Path_83" data-name="Path 83" d="M524.115,219.639h8.519V180.521h-8.519v39.118Z" transform="translate(-407.693 -180.04)" fill="#fff"/>
    <path id="Path_84" data-name="Path 84" d="M154.026,183.132v33.809a2.386,2.386,0,0,0,2.6,2.6h25.983v-7.624H162.412V203.7h20.195v-7.715H162.412v-7.7h20.195v-7.75H156.623a2.386,2.386,0,0,0-2.6,2.6h0Z" transform="translate(-119.847 -180.051)" fill="#fff"/>
    <path id="Path_85" data-name="Path 85" d="M627.556,186.771A11.756,11.756,0,0,1,636.5,190.9l7.461-4.121a20.194,20.194,0,0,0-32.606-.29l7.38,4.262a11.748,11.748,0,0,1,8.817-3.982Z" transform="translate(-475.55 -178.357)" fill="#fff"/>
    <path id="Path_86" data-name="Path 86" d="M703.88,239.371A11.776,11.776,0,0,1,695,254.333v8.516a20.2,20.2,0,0,0,16.343-27.6l-7.464,4.123h0Z" transform="translate(-540.604 -222.605)" fill="#fff"/>
    <path id="Path_87" data-name="Path 87" d="M601.8,241.637a11.732,11.732,0,0,1,.57-3.616l-7.389-4.266a20.207,20.207,0,0,0,16.171,27.929v-8.521a11.8,11.8,0,0,1-9.352-11.526h0Z" transform="translate(-461.569 -221.444)" fill="#fff"/>
    <path id="Path_88" data-name="Path 88" d="M351.455,197.213a2.517,2.517,0,0,0-2.644-1.784H328.765v7.69h13.391a11.822,11.822,0,0,1-8.453,6.937v.008a11.876,11.876,0,0,1-14.088-10.312h0a11.2,11.2,0,0,1,.491-4.791h0c2.436-8.592,14.556-11.09,20.155-4.088l7.461-4.122a20.338,20.338,0,0,0-6.142-5.619l.008-.01c-8.571-5.283-20.795-2.734-26.461,5.346h0a20.268,20.268,0,0,0-2.394,4.18h0c-5.46,11.965,3.334,26.767,16.153,27.919v0a19.984,19.984,0,0,0,8.35-.726l0-.01a20.2,20.2,0,0,0,14.277-20.287,2.438,2.438,0,0,0-.054-.33h0Z" transform="translate(-242.003 -178.355)" fill="#fff"/>
  </g>
</svg>
